<?xml version="1.0" encoding="UTF-8" standalone="no"?>
<svg
   xmlns:dc="http://purl.org/dc/elements/1.1/"
   xmlns:cc="http://creativecommons.org/ns#"
   xmlns:rdf="http://www.w3.org/1999/02/22-rdf-syntax-ns#"
   xmlns:svg="http://www.w3.org/2000/svg"
   xmlns="http://www.w3.org/2000/svg"
   viewBox="0 0 1841.3333 1100"
   height="1100"
   width="1841.3333"
   xml:space="preserve"
   id="svg2"
   version="1.1"><metadata
     id="metadata8"><rdf:RDF><cc:Work
         rdf:about=""><dc:format>image/svg+xml</dc:format><dc:type
           rdf:resource="http://purl.org/dc/dcmitype/StillImage" /></cc:Work></rdf:RDF></metadata><defs
     id="defs6"><clipPath
       id="clipPath18"
       clipPathUnits="userSpaceOnUse"><path
         id="path16"
         d="M 0,825 H 1381 V 0 H 0 Z" /></clipPath></defs><g
     transform="matrix(1.3333333,0,0,-1.3333333,0,1100)"
     id="g10"><g
       id="g12"><g
         clip-path="url(#clipPath18)"
         id="g14"><g
           transform="translate(598.925,453.6642)"
           id="g20"><path
             id="path22"
             style="fill:#3c86cd;fill-opacity:1;fill-rule:evenodd;stroke:none"
             d="m 0,0 -15.792,-52.641 c 10.528,7.019 21.056,7.019 31.584,0 z M -47.377,-94.753 -5.264,52.641 H 5.264 L 47.377,-94.753 H 26.32 C 19.302,-73.697 10.528,-63.169 0,-63.169 c -10.528,0 -19.302,-10.528 -26.32,-31.584 z M -58.543,52.641 V 31.584 h -52.641 v -42.112 h 42.113 v -21.056 h -42.113 v -42.113 h 52.641 V -94.753 H -132.24 V 52.641 Z m -126.348,0 h 31.585 V 31.584 h -31.585 c -5.825,0 -10.791,-2.053 -14.897,-6.159 -4.106,-4.106 -6.159,-9.071 -6.159,-14.897 0,-7.019 8.774,-15.792 26.321,-26.32 17.546,-10.528 26.32,-22.811 26.32,-36.849 0,-11.651 -4.106,-21.582 -12.318,-29.794 -8.212,-8.212 -18.143,-12.318 -29.795,-12.318 h -31.584 v 21.056 h 31.584 c 5.826,0 10.792,2.053 14.898,6.159 4.106,4.106 6.159,9.072 6.159,14.897 0,7.019 -8.774,15.793 -26.321,26.321 -17.547,10.528 -26.32,22.811 -26.32,36.848 0,11.651 4.106,21.583 12.318,29.795 8.212,8.212 18.143,12.318 29.794,12.318" /></g><g
           transform="translate(1228.8862,506.3048)"
           id="g24"><path
             id="path26"
             style="fill:#231f20;fill-opacity:1;fill-rule:evenodd;stroke:none"
             d="m 0,0 v -21.056 h -52.641 v -42.113 h 42.113 v -21.056 h -42.113 v -42.112 H 0 v -21.057 H -73.697 V 0 Z m -122.592,-21.056 h -56.22 V 0 h 90.015 l -62.01,-126.337 h 56.22 v -21.057 h -90.015 z M -194.507,0 v -21.056 h -52.641 v -42.113 h 42.113 v -21.056 h -42.113 v -42.112 h 52.641 v -21.057 h -73.697 V 0 Z m -94.655,0 v -21.056 h -52.641 v -42.113 h 42.113 v -21.056 h -42.113 v -42.112 h 52.641 v -21.057 h -73.697 V 0 Z m -118.907,-105.176 16.845,-42.218 h -24.215 l -13.16,32.953 c -4.212,-0.912 -8.598,-1.368 -13.16,-1.368 h -5.264 v -31.585 H -468.08 V 0 h 26.321 c 16.002,0 29.654,-5.65 40.954,-16.95 11.3,-11.3 16.95,-24.952 16.95,-40.955 0,-16.002 -5.65,-29.654 -16.95,-40.954 -2.316,-2.316 -4.738,-4.422 -7.264,-6.317 m -38.954,10.423 h 5.264 c 10.177,0 18.863,3.597 26.057,10.791 7.194,7.195 10.791,15.88 10.791,26.057 0,10.178 -3.597,18.863 -10.791,26.057 -7.194,7.195 -15.88,10.792 -26.057,10.792 h -5.264 z m -102.547,-10.528 v -21.056 h 10.528 c 2.878,0 5.352,1.035 7.422,3.105 2.071,2.071 3.106,4.545 3.106,7.423 0,2.877 -1.035,5.352 -3.106,7.422 -2.07,2.071 -4.544,3.106 -7.422,3.106 z M -570.626,0 h 31.584 c 14.529,0 26.934,-5.141 37.217,-15.424 10.282,-10.282 15.423,-22.688 15.423,-37.217 0,-14.528 -5.123,-26.916 -15.371,-37.164 -3.439,-3.439 -7.089,-6.282 -10.949,-8.528 3.51,-5.123 5.264,-10.949 5.264,-17.476 0,-8.703 -3.088,-16.143 -9.264,-22.32 -6.177,-6.176 -13.617,-9.265 -22.32,-9.265 h -31.584 z m 21.056,-84.225 h 10.528 c 8.703,0 16.143,3.088 22.32,9.265 6.176,6.176 9.264,13.616 9.264,22.319 0,8.704 -3.088,16.144 -9.264,22.32 -6.177,6.177 -13.617,9.265 -22.32,9.265 h -10.528 z" /></g><g
           transform="translate(1268.3735,540.3036)"
           id="g28"><path
             id="path30"
             style="fill:#3c86cd;fill-opacity:1;fill-rule:evenodd;stroke:none"
             d="M 0,0 C 29.458,-37.211 50.499,-79.965 61.906,-125.092 99.062,-272.111 -52.095,-377.189 -180.185,-376.117 127.61,-289.701 0.761,0.029 0,0" /></g><g
           transform="translate(1332.7115,267.9624)"
           id="g32"><path
             id="path34"
             style="fill:#3c86cd;fill-opacity:1;fill-rule:evenodd;stroke:none"
             d="m 0,0 c -4.808,-21.747 -11.973,-43.282 -21.654,-64.287 -4.005,-8.689 -8.375,-17.095 -13.053,-25.242 -102.142,-137.215 -350.506,-3.85 -350.506,-3.85 C -82.854,-194.793 -1.729,-4.152 0,0" /></g><g
           transform="translate(1231.8444,97.7667)"
           id="g36"><path
             id="path38"
             style="fill:#285b97;fill-opacity:1;fill-rule:evenodd;stroke:none"
             d="m 0,0 c -18.96,-16.556 -39.741,-30.754 -61.871,-42.402 -3.369,-1.472 -132.368,-56.739 -267.188,60.396 -62.584,54.38 -136.741,93.707 -204.951,116.671 -80.681,27.16 -153.043,31.421 -188.078,10.537 0,0 56.063,39.385 179.693,13.567 51.84,-10.827 115.558,-33.111 192.015,-74.591 C -177.923,-9.374 -74.519,-19.335 0,0" /></g><g
           transform="translate(589.7006,230.99)"
           id="g40"><path
             id="path42"
             style="fill:#285b97;fill-opacity:1;fill-rule:evenodd;stroke:none"
             d="m 0,0 c 0,0 149.606,5.983 244.181,-104.76 0,0 -110.645,78.6 -244.181,104.76" /></g><g
           transform="translate(1228.3289,321.3855)"
           id="g44"><path
             id="path46"
             style="fill:#231f20;fill-opacity:1;fill-rule:evenodd;stroke:none"
             d="m 0,0 -4.628,-2.777 c -1.728,2.921 -4.217,4.382 -7.468,4.382 -1.975,0 -3.764,-0.618 -5.369,-1.852 -1.604,-1.234 -2.406,-2.818 -2.406,-4.752 0,-2.797 2.159,-5.019 6.479,-6.665 l 3.333,-1.296 c 3.703,-1.44 6.552,-3.229 8.547,-5.369 1.995,-2.139 2.993,-5.019 2.993,-8.639 0,-4.197 -1.43,-7.663 -4.289,-10.399 -2.859,-2.736 -6.387,-4.104 -10.584,-4.104 -3.744,0 -6.952,1.224 -9.627,3.672 -2.674,2.448 -4.258,5.564 -4.752,9.349 l 5.863,1.235 c -0.041,-2.51 0.813,-4.608 2.561,-6.295 1.749,-1.687 3.898,-2.53 6.449,-2.53 2.469,0 4.515,0.895 6.141,2.684 1.625,1.79 2.437,3.919 2.437,6.388 0,2.262 -0.71,4.042 -2.129,5.338 -1.419,1.296 -3.384,2.458 -5.894,3.487 l -3.209,1.357 c -3.167,1.358 -5.646,2.921 -7.436,4.69 -1.79,1.769 -2.684,4.135 -2.684,7.097 0,3.621 1.357,6.532 4.073,8.733 2.715,2.201 5.924,3.301 9.627,3.301 C -6.624,7.035 -2.633,4.69 0,0 m -70.537,6.048 v -41.224 h 14.132 v -5.307 H -76.338 V 6.048 Z m -50.913,-29.56 -8.27,18.822 -8.269,-18.822 z m 2.407,-5.308 h -21.353 l -5.307,-11.663 h -6.233 l 22.216,48.506 22.217,-48.506 h -6.233 z m -65.91,29.561 v -41.224 h -5.801 V 0.741 H -201.8 v 5.307 h 27.894 V 0.741 Z m -88.804,-41.224 V 8.269 l 34.929,-36.595 V 6.048 h 5.801 v -48.445 l -34.929,36.596 v -34.682 z m -58.874,0 V 6.048 h 24.994 V 0.741 h -19.193 v -13.022 h 18.637 v -5.307 h -18.637 v -17.588 h 19.193 v -5.307 z m -54.986,41.347 v -16.848 h 1.852 c 1.686,0 3.178,0.103 4.474,0.309 1.296,0.206 2.581,0.586 3.857,1.142 1.275,0.555 2.263,1.429 2.962,2.622 0.699,1.194 1.049,2.675 1.049,4.444 0,5.554 -4.217,8.331 -12.651,8.331 z m 8.455,-21.106 14.687,-20.241 h -7.035 l -13.7,19.686 h -2.407 v -19.686 h -5.801 V 6.048 h 7.035 c 1.77,0 3.199,-0.031 4.289,-0.093 1.091,-0.061 2.407,-0.257 3.95,-0.586 1.543,-0.329 2.89,-0.823 4.042,-1.481 1.893,-1.111 3.384,-2.674 4.474,-4.69 1.091,-2.016 1.636,-4.156 1.636,-6.418 0,-3.374 -1.029,-6.285 -3.086,-8.733 -2.057,-2.448 -4.752,-3.877 -8.084,-4.289 m -104.48,-3.27 -8.269,18.822 -8.27,-18.822 z m 2.407,-5.308 h -21.352 l -5.308,-11.663 h -6.233 l 22.217,48.506 22.217,-48.506 h -6.233 z M -585.467,-40.483 V 8.269 l 34.929,-36.595 V 6.048 h 5.801 v -48.445 l -34.929,36.596 v -34.682 z m -44.557,16.971 -8.269,18.822 -8.27,-18.822 z m 2.407,-5.308 h -21.353 l -5.307,-11.663 h -6.233 l 22.217,48.506 22.216,-48.506 h -6.233 z M -716.36,-40.483 V 6.048 h 5.678 c 2.386,0 4.525,-0.185 6.418,-0.556 1.892,-0.37 3.672,-0.997 5.338,-1.882 1.666,-0.884 2.962,-2.201 3.888,-3.949 0.926,-1.749 1.389,-3.878 1.389,-6.388 0,-1.769 -0.453,-3.507 -1.358,-5.214 -0.905,-1.708 -2.119,-2.911 -3.641,-3.611 v -0.123 c 2.674,-0.494 4.896,-1.882 6.665,-4.166 1.769,-2.283 2.653,-4.823 2.653,-7.621 0,-4.361 -1.563,-7.622 -4.69,-9.782 -3.127,-2.16 -6.953,-3.239 -11.478,-3.239 z m 5.801,21.29 V -35.3 h 4.444 c 7.323,0 10.984,2.736 10.984,8.208 0,1.564 -0.36,2.89 -1.08,3.981 -0.719,1.09 -1.697,1.902 -2.931,2.437 -1.234,0.535 -2.489,0.916 -3.764,1.142 -1.276,0.226 -2.633,0.339 -4.073,0.339 z m 0,20.057 v -15.428 h 1.481 c 3.209,0 5.678,0.535 7.406,1.604 1.728,1.07 2.592,3.127 2.592,6.172 0,3.003 -0.854,5.029 -2.561,6.078 -1.708,1.049 -4.145,1.574 -7.313,1.574 z m -50.419,-24.376 -8.269,18.822 -8.27,-18.822 z m 2.407,-5.308 h -21.353 l -5.307,-11.663 h -6.233 l 22.217,48.506 22.216,-48.506 h -6.233 z m -62.145,32.708 v -6.727 c -3.414,3.045 -7.508,4.567 -12.281,4.567 -5.142,0 -9.493,-1.862 -13.052,-5.585 -3.558,-3.723 -5.338,-8.198 -5.338,-13.423 0,-5.142 1.759,-9.575 5.277,-13.299 3.517,-3.723 7.847,-5.585 12.99,-5.585 4.69,0 8.825,1.605 12.404,4.814 v -6.85 c -3.702,-2.181 -7.775,-3.271 -12.219,-3.271 -6.665,0 -12.373,2.325 -17.125,6.974 -4.752,4.649 -7.128,10.326 -7.128,17.032 0,6.871 2.407,12.672 7.221,17.403 4.813,4.732 10.655,7.097 17.526,7.097 4.402,0 8.311,-1.049 11.725,-3.147" /></g><g
           transform="translate(330.162,297.5874)"
           id="g48"><path
             id="path50"
             style="fill:#231f20;fill-opacity:1;fill-rule:evenodd;stroke:none"
             d="m 0,0 c 0.086,-5.512 0.064,-11.089 -0.043,-16.686 h -28.471 c 0.126,1.809 0.254,3.619 0.34,5.407 v 0.022 c 0.701,11.637 0.956,23.088 0.808,34.388 -0.83,65.137 -14.834,124.468 -34.474,175.093 -0.385,0.98 -0.768,1.936 -1.151,2.916 v 0.021 c -24.619,62.415 -57.711,111.295 -84.737,141.193 2.511,-12.192 6.171,-24.79 10.449,-37.218 -2.532,2.83 -5.64,7.022 -9.383,13.236 0,0 6.765,-23.513 17.364,-34.602 -3.703,2.364 -7.788,5.724 -12.002,10.577 2.744,-6.066 14.639,-34.92 28.025,-49.433 0.299,-0.34 0.618,-0.683 0.936,-1.023 0.533,-0.532 1.044,-1.041 1.575,-1.531 -0.595,0.49 -1.192,0.979 -1.765,1.467 h -0.024 c -0.423,0.364 -0.806,0.704 -1.21,1.065 -4.789,4.15 -9.512,8.937 -13.918,14.385 1.086,-1.872 3.959,-7.681 8.023,-14.81 0.511,-0.916 1.063,-1.853 1.638,-2.809 6.193,-10.598 14.578,-23.176 23.238,-30.008 -6.894,3.28 -14.387,8.492 -21.62,16.834 0.233,-0.616 4.425,-10.47 12.363,-19.238 4.596,-5.086 10.47,-9.788 17.556,-12.108 -10.534,1.598 -19.746,5.086 -27.813,10.001 -6.874,4.171 -12.895,9.365 -18.194,15.26 -0.596,0.659 -1.191,1.339 -1.766,2.021 -0.362,0.426 -0.723,0.852 -1.106,1.299 -2.916,3.574 -5.619,7.383 -8.066,11.34 -25.645,41.051 -27.005,98.699 -26.451,101.678 -5.726,-10.235 -9.407,-22.132 -11.621,-34.706 -1.446,3.105 -2.787,8.296 -3.617,17.149 -0.043,-4.829 -2.83,-20.873 1.574,-33.344 -3.234,3.596 -6.851,9.234 -10.213,19.322 0,-1.087 0.086,-33.941 10.066,-55.648 -4.98,5.277 -10.513,13.576 -15.302,26.515 0.428,-2.426 9.003,-48.561 21.963,-76.8 -6.789,7.917 -14.13,19.833 -20.729,38.688 0,0 3.469,-32.581 23.344,-56.563 0.64,-0.789 1.299,-1.555 1.981,-2.299 -0.811,0.808 -1.617,1.595 -2.385,2.385 -101.59,101.868 -27.408,162.514 -27.408,162.514 -11.959,-5.553 -22.387,-11.852 -31.473,-18.363 0.573,3.724 2.383,9.426 6.915,18.111 0,0 -14.066,-7.769 -18.917,-27.495 -3.469,5.127 -6.32,12.535 -4.128,21.811 0,0 -17.94,-16.004 -22.793,-50.456 -2.276,5.279 -3.807,13.747 -2.276,27.834 0,0 -22.215,-27.173 -11.469,-50.413 -52.989,103.466 75.734,122.512 75.734,122.512 -12.767,2.511 -25.023,3.512 -36.155,3.619 2.405,2.233 8.174,4.594 21.516,5.51 0,0 -2.853,0.214 -7.065,0.214 -8.663,0 -23.111,-0.873 -30.728,-6.152 3.063,3.702 8.682,8.513 18.577,11.769 -3.087,-0.552 -22.983,-0.723 -33.282,-13.236 1.041,4.532 3.277,10.216 8.109,15.067 0,0 -20.984,-4.492 -29.24,-19.112 35.751,81.42 123.743,27.092 123.743,27.092 17.386,106.444 112.807,75.884 112.807,75.884 -16.408,0.533 -34.581,-7.576 -34.581,-7.576 7.151,1.319 11.748,-0.34 14.792,-2.809 -13.6,-1.638 -32.284,-11.428 -33.157,-12.28 7.046,1.087 12.216,0.257 15.961,-1.338 -15.407,-2.832 -33.601,-14.813 -33.601,-14.813 11.555,3.641 16.917,2.79 19.493,0.469 -12.77,-3.32 -20.812,-12.768 -21.302,-13.362 5.999,2.594 10.149,3.445 13.045,3.574 -9.79,-12.342 -15.621,-22.111 -15.961,-22.729 86.951,43.924 138.216,-20.705 139.408,-22.237 -18.877,12.235 -37.858,13.959 -42.072,15.812 12.023,-5.726 16.556,-12.96 18.087,-18.663 -17.214,12.066 -38.728,14.045 -41.643,14.173 12.023,-6.492 16.384,-12.449 17.875,-16.962 -23.24,13.003 -41.241,12.258 -44.307,13.407 11.79,-5.469 19.238,-11.255 23.814,-15.833 -16.237,7.022 -38.731,6.471 -43.199,6.64 16.32,-1.872 23.961,-8.851 24.004,-8.896 l -50.626,-5.957 c 115.19,-17.769 127.256,-84.036 128,-106.358 0.148,-4.661 -0.192,-7.405 -0.192,-7.405 -0.447,2.53 -0.999,4.934 -1.617,7.234 -5.574,20.705 -17.214,31.686 -18.023,32.409 6.383,-8.958 9.533,-18.087 11.022,-25.577 l -0.126,0.107 c -9.598,20.726 -29.028,36.58 -30.327,38.154 9.151,-12.172 12.387,-21.323 13.282,-27.812 -12.939,25.47 -36.626,42.539 -36.626,42.539 14.301,-16.769 17.982,-26.771 18.175,-32.773 -22.111,34.963 -42.69,44.689 -42.69,44.689 9.472,-10.044 14.258,-20.622 16.665,-28.027 -8.152,14.663 -30.367,26.686 -32.816,28.496 6.427,-6.238 10.194,-11.621 12.62,-16.301 -12.237,6.618 -23.409,11.362 -32.091,14.598 C -94.059,308.073 -6.639,175.455 -0.319,11.49 -0.147,7.702 -0.043,3.871 0,0.043 Z" /></g><g
           transform="translate(320.4156,280.902)"
           id="g52"><path
             id="path54"
             style="fill:#231f20;fill-opacity:1;fill-rule:evenodd;stroke:none"
             d="m 0,0 h -16.577 c -0.597,1.81 -1.213,3.617 -1.852,5.405 v 0.022 c -1.32,3.745 -2.68,7.426 -4.107,11.067 -27.452,69.841 -75.48,118.595 -108.061,141.193 3.32,-7.172 7.405,-14.449 11.833,-21.557 -1.938,1.403 -4.47,3.513 -7.619,6.768 0.511,-0.958 7.809,-13.683 15.64,-18.834 -2.616,0.916 -5.638,2.447 -8.958,4.809 2.744,-3.553 15.597,-21.6 26.429,-27.792 -4.275,2.109 -8.682,4.704 -12.938,8.045 2.406,-2.576 15.875,-19.428 27.239,-24.75 -4.725,1.022 -10.087,3.191 -15.789,7.3 0.575,-0.83 10.277,-13.98 23.023,-15.067 -51.816,-4.13 -71.905,72.779 -72.053,75.651 -2.064,-7.172 -2.618,-15.045 -2.171,-23.173 -1.382,1.745 -2.98,4.767 -4.765,10.235 0.68,-2.809 1.21,-13.386 5.828,-20.558 -2.533,1.769 -5.553,4.727 -9.127,10.513 0,0 4.809,-20.831 14.256,-33.026 -3.831,2.576 -8.468,6.873 -13.3,14.192 0.597,-1.403 12.599,-28.769 24.686,-44.347 -5.362,3.895 -11.597,10.195 -18.429,20.898 0.383,-1.063 6.661,-18.175 20.45,-29.858 1.17,-1.018 2.426,-1.979 3.724,-2.913 -2.064,1.277 -4.064,2.532 -5.978,3.831 -70.757,46.644 -37.496,92.313 -36.243,93.973 -6.639,-5.129 -12.151,-10.534 -16.831,-15.875 -0.214,2.382 0.107,6.192 1.681,12.234 0,0 -7.598,-6.872 -7.788,-19.768 -2.851,2.683 -5.705,6.851 -5.683,12.917 0,0 -8.789,-12.513 -6.873,-34.538 -2.128,2.935 -4.32,7.938 -5.383,16.918 0,0 -9.855,-20.045 0.147,-32.879 -47.71,56.456 29.261,86.783 29.261,86.783 -8.278,-0.278 -16.001,-1.427 -22.897,-2.958 1.148,1.724 4.382,3.999 12.427,6.489 -0.19,-0.021 -0.637,-0.107 -1.256,-0.233 -4.085,-0.787 -16.301,-3.512 -21.195,-8.896 1.342,2.747 4.15,6.532 9.812,9.98 -1.831,-0.765 -14.133,-3.745 -18.727,-13.002 0,2.979 0.573,6.81 2.873,10.513 0,0 -12.344,-5.788 -15.343,-16.045 8.214,43.922 48.88,40.005 65.564,36.453 0.128,-0.043 0.275,-0.065 0.404,-0.086 4.171,-0.916 6.746,-1.786 6.746,-1.786 -2.107,31.601 10.278,47.517 24.239,55.497 8.278,4.704 17.086,6.64 23.768,7.406 2.235,0.256 4.235,0.382 5.895,0.428 0.171,0.019 0.34,0.019 0.49,0.019 2.808,0.064 4.511,-0.065 4.511,-0.065 -1.191,-0.233 -2.404,-0.573 -3.574,-0.955 -0.064,0 -0.129,-0.022 -0.193,-0.065 h -0.021 c -1.893,-0.597 -3.745,-1.362 -5.47,-2.171 -6.021,-2.765 -10.639,-6.192 -11.043,-6.489 4.235,1.807 7.32,1.467 9.576,0.383 -5.64,-2.065 -12.194,-6.832 -15.875,-9.831 -1.681,-1.363 -2.766,-2.364 -2.894,-2.575 1.446,0.573 2.768,0.998 4.002,1.277 2.383,0.508 4.383,0.508 6.042,0.233 -1.424,-0.619 -2.872,-1.406 -4.278,-2.255 -7.043,-4.299 -13.385,-10.748 -14.256,-11.685 6.554,3.831 9.959,4.045 11.874,3.001 -7.427,-3.872 -11.022,-10.918 -11.236,-11.341 3.341,2.445 5.788,3.596 7.555,4.086 -4.45,-9.344 -6.618,-16.387 -6.618,-16.387 10.746,9.001 21.173,14.28 30.878,17.067 3.51,1.022 6.936,1.702 10.256,2.107 18.066,2.254 32.771,-3.577 41.049,-8.088 v -0.019 c 4.447,-2.407 7.043,-4.471 7.364,-4.725 -2.128,0.744 -4.194,1.341 -6.216,1.81 -10.382,2.468 -19.023,1.531 -21.81,1.85 8.042,-1.85 11.83,-5.617 13.575,-8.894 -12.427,5.001 -26.003,3.106 -27.834,2.787 8.363,-2.321 11.938,-5.384 13.512,-7.938 -16.278,4.704 -27.323,1.66 -29.387,1.893 8.109,-1.66 13.533,-4.171 17.045,-6.32 -11.065,1.98 -24.919,-1.596 -27.706,-2.126 10.363,1.191 16.13,-2.065 16.13,-2.065 l -30.493,-10.981 c 89.291,6.746 95.569,-52.03 95.569,-52.03 -6.256,14.598 -16.555,20.94 -17.813,21.663 5.214,-4.618 8.449,-9.788 10.406,-14.216 l -0.084,0.065 c -8.896,11.45 -23.237,18.448 -24.26,19.259 7.427,-6.235 10.725,-11.429 12.235,-15.302 -11.298,13.428 -27.749,20.6 -28.769,21.026 11.234,-8.321 14.939,-13.961 15.959,-17.664 -18.173,17.918 -31.984,21.345 -32.836,21.516 7.258,-4.853 11.726,-10.684 14.302,-14.941 -7.151,7.919 -22.663,12.152 -24.451,12.939 4.894,-2.956 8,-5.745 10.171,-8.297 -8.532,2.361 -16.13,3.679 -21.961,4.404 21.557,-13.279 69.33,-56.988 102.974,-121.724 5.108,-9.81 9.876,-20.087 14.197,-30.836 C -2.233,6.023 -1.087,3.044 0,0" /></g><g
           transform="translate(352.1874,417.1405)"
           id="g56"><path
             id="path58"
             style="fill:#231f20;fill-opacity:1;fill-rule:evenodd;stroke:none"
             d="m 0,0 c -1.853,-45.301 -8.875,-85.886 -17.768,-120.723 v -0.041 c -1.363,-5.307 -2.747,-10.461 -4.174,-15.476 h -0.383 c 1.556,8.392 2.98,17.096 4.238,26.137 4.637,32.904 7.17,69.974 5.531,110.479 -2.021,50.354 -10.044,95.062 -19.939,132.822 1.531,0.138 3.065,0.276 4.596,0.414 0.597,0.059 1.213,0.119 1.81,0.157 5.213,0.476 10.406,0.949 15.619,1.422 C -2.98,97.174 2.107,51.538 0,0" /></g><g
           transform="translate(277.2844,540.696)"
           id="g60"><path
             id="path62"
             style="fill:#231f20;fill-opacity:1;fill-rule:nonzero;stroke:none"
             d="m 0,0 c 72.334,17.214 168.542,50.882 267.25,120.445 35.963,25.345 67.09,51.812 93.774,77.461 0,0 154.723,-136.62 361.023,-197.906 -67.444,8.584 -163.381,30.179 -263.262,87.883 -37.924,21.906 -70.162,45.41 -97.143,67.999 C 336.06,132.668 304.696,108.146 266.927,85.453 164.485,23.911 64.61,5.686 0,0" /></g></g></g></g></svg>